<?xml version="1.0" encoding="UTF-8"?>
<svg id="Calque_1" data-name="Calque 1" xmlns="http://www.w3.org/2000/svg" viewBox="0 0 145 145">
  <defs>
    <style>
      .cls-1 {
        fill: #fff;
      }

      .cls-1, .cls-2 {
        stroke-width: 0px;
      }

      .cls-2 {
        fill: #f24103;
      }
    </style>
  </defs>
  <circle class="cls-2" cx="76.67" cy="72.68" r="62.68"/>
  <g>
    <path class="cls-1" d="m40.49,66.52c-1.15-3.44.28-6.51.77-9.65.11-.7.79-.99,1.52-.98,2.74,0,5.47,0,8.21,0,.82,0,1.41.4,1.56,1.18.45,2.36,1.06,4.69,1.16,7.1.03.69-.23,1.39-.36,2.1.05.05.11.16.18.17,2.83.24,2.92.23,2.81-2.54-.15-3.81.43-7.37,2.51-10.66.85-1.34,1.15-2.94,1.13-4.56,0-1.09.04-2.19,0-3.28-.22-5.28.79-4.75,5.06-4.72,1.67.01,2.35.75,2.39,2.45.04,1.8.02,3.61.01,5.42,0,1.56.17,3.13,1,4.43,2.32,3.64,2.84,7.64,2.53,11.81-.11,1.5.39,1.92,1.8,1.75.92-.11,1.86-.02,2.79-.02.95,0,2.06-.05,2.09,1.24.03,1.3-1.06,1.29-2.03,1.29-4.49,0-8.98,0-13.46,0-7.83,0-15.65.04-23.48-.04-1.45-.02-1.57.57-1.55,1.72.02,1.14-.03,1.91,1.58,1.9,25.34-.05,50.68-.05,76.01,0,1.6,0,1.57-.75,1.58-1.9.01-1.14-.09-1.74-1.55-1.73-10.34.07-20.69.04-31.03.04-.44,0-.88.01-1.31,0-.82-.03-1.4-.41-1.39-1.28,0-.88.65-1.19,1.44-1.24.33-.02.66,0,.98,0,10.45,0,20.91,0,31.36,0,3.03,0,3.95.91,3.95,3.88,0,.66.06,1.32-.02,1.97-.17,1.47-1.01,2.57-2.49,2.57-1.48,0-1.62.6-1.61,1.84.04,10.78.03,21.56.02,32.34,0,3.96-1.63,5.6-5.53,5.6-21.62,0-43.23,0-64.85,0-3.83,0-5.48-1.65-5.5-5.48,0-2.35,0-4.71,0-7.06,0-.9.19-1.73,1.29-1.7,1.1.03,1.21.87,1.2,1.77-.02,2.46-.02,4.93,0,7.39.01,1.9.66,2.56,2.56,2.59,2.08.03,4.16-.03,6.24.03.73.02,1.09-.23,1.31-.9.51-1.53,1.52-2.68,2.97-3.33.84-.38,1.17-.83,1.06-1.72-.08-.59-.03-1.2,0-1.8.04-.96.16-1.88-1.35-1.65-.68.1-1.1-.5-1.11-1.16-.01-.77.49-1.3,1.24-1.23,1.28.13,1.27-.59,1.23-1.49-.04-.82-.05-1.64,0-2.46.09-1.49-.5-2.63-1.18-3.97-1.08-2.15-2.4-2.56-4.5-2.47-1.45.07-2.49-1.17-2.55-2.68-.06-1.58-.05-3.17,0-4.76.05-1.68,1.07-2.84,2.76-2.86,6.02-.06,12.04-.06,18.06,0,1.66.02,2.68,1.18,2.76,2.88.07,1.47.06,2.96,0,4.43-.07,1.93-1.18,3.05-3.12,3.02-1.62-.02-2.47.38-3.65,1.88-1.96,2.5-1.24,5.01-1.48,7.55-.06.63.2.89.84.88.83,0,1.59.18,1.59,1.22,0,1-.69,1.31-1.55,1.24-.78-.07-.93.3-.88.96.04.6.06,1.21,0,1.8-.14,1.26.13,2.11,1.49,2.64,1.24.49,2.05,1.65,2.49,2.93.25.75.58,1.04,1.38,1.03,5.91-.03,11.82-.03,17.73,0,.79,0,1.13-.26,1.4-1.02.48-1.38,1.4-2.53,2.76-3.1,1.05-.45,1.35-1.1,1.22-2.14-.06-.48-.04-.99,0-1.48.06-.99.1-1.84-1.36-1.67-.65.07-1.08-.47-1.08-1.19,0-.73.43-1.22,1.09-1.18,1.42.1,1.42-.74,1.36-1.74-.04-.71-.03-1.42,0-2.13.05-1.53-.43-2.73-1.21-4.15-1.12-2.02-2.33-2.51-4.4-2.39-1.51.08-2.45-1.03-2.59-2.47-.16-1.74-.15-3.51-.01-5.25.12-1.45,1.02-2.44,2.54-2.56,1.3-.11,2.62-.07,3.94-.04.73.01,1.3.34,1.31,1.16.01.88-.53,1.26-1.36,1.29-.11,0-.22,0-.33,0-1.17.13-2.99-.55-3.39.31-.58,1.27-.21,2.99-.22,4.52,0,.73.56.68,1.05.68,5.47,0,10.95,0,16.42,0,.72,0,1.07-.19,1.15-.99.48-4.53.5-4.53-3.98-4.53-1.42,0-2.85-.02-4.27,0-.93.02-1.72-.21-1.73-1.26,0-.97.76-1.23,1.61-1.23,2.63,0,5.26-.05,7.88.03,1.87.05,2.88,1.17,2.92,3.05.03,1.42.03,2.85,0,4.27-.04,1.95-1.11,3-3.07,3.07-.49.02-.99.06-1.48,0-.98-.14-1.51.22-1.69,1.2-.07.36-.24.79-.51,1.01-2.58,2.09-1.14,4.96-1.47,7.47-.11.82.62.58,1.05.61.82.06,1.42.43,1.39,1.29-.03.85-.62,1.29-1.45,1.18-.98-.13-1.06.4-1.01,1.14.04.49.04.99,0,1.48-.11,1.26,0,2.26,1.49,2.79,1.13.4,2,1.46,2.34,2.62.36,1.24,1.1,1.38,2.17,1.34,1.91-.06,3.83.02,5.75-.03,1.68-.04,2.38-.75,2.38-2.44.01-11.22,0-22.44.03-33.66,0-1-.38-1.13-1.24-1.13-22.82.02-45.64.02-68.46,0-1.02,0-1.28.25-1.27,1.27.05,6.07.02,12.15.02,18.22,0,.33-.01.66,0,.98.04.87-.2,1.6-1.18,1.63-1.09.03-1.31-.78-1.31-1.69,0-.38,0-.77,0-1.15,0-5.91-.02-11.82.02-17.73,0-1.02-.07-1.73-1.36-1.53-.26.04-.55-.03-.8-.12-1.72-.57-2.34-2.41-1.94-5.71.18-1.51,1.24-2.52,2.87-2.64.92-.06,1.85-.01,2.94-.01Zm23.24,0c1.31,0,2.63,0,3.94,0,.48,0,.84-.03.83-.67-.04-3.7.42-7.46-1.83-10.81-.82-1.23-1.29-2.65-1.49-4.13-.12-.88-.24-1.52-1.45-1.47-1.06.04-1.41.38-1.51,1.4-.12,1.25-.47,2.52-1.18,3.55-2.39,3.44-2.25,7.32-2.19,11.21.01.71.21.96.93.94,1.31-.05,2.63-.01,3.94-.01Zm-4.8,15.7h-5.4c-4.02,0-3.98,0-3.96,4.03,0,1.13.31,1.52,1.48,1.5,4.37-.06,8.73-.02,13.1-.02,4.18,0,4.15,0,4.09-4.23-.01-.98-.25-1.33-1.28-1.3-2.67.07-5.35.02-8.02.02Zm-12.17-15.72c.76,0,1.53.05,2.29-.01,1.09-.09,1.8-.72,2.09-1.77.29-1.06.22-1.79-1.23-1.72-2.01.09-4.04.11-6.05,0-1.45-.08-1.54.67-1.28,1.69.26,1.04.97,1.71,2.06,1.81.7.06,1.42.01,2.13.02Zm6.92,45.67h10.32c-.74-1.72-1.65-2.41-3.52-2.34-2.41.09-5.22-.84-6.8,2.34Zm46.09.02c-1.86-3.37-4.86-2.23-7.42-2.32-1.49-.05-2.39.85-2.88,2.32h10.3Zm-48.62-51.65c-1.12-.7-.08-2.07-1.45-2.17-1.89-.13-3.8-.09-5.7,0-1.05.05-.73,1.05-.83,1.67-.13.77.54.49.89.49,2.17.03,4.34.01,7.09.01Zm11.13,29.62c-.46,0-.72,0-.97,0-1.59,0-3.17,0-4.76,0-.25,0-.61,0-.73.15-.26.32.07.61.25.86,1.31,1.79,4.93,1.34,6.22-1.01Zm35.47.1h-6.55c.61,1.8,1.96,1.99,3.45,1.98,1.4-.02,2.57-.33,3.1-1.98Zm-37.79,7.25c0-.6-.04-1.2.01-1.79.06-.74-.14-1.06-.97-1.04-.77.02-1.21.09-1.15,1.04.08,1.19.06,2.39,0,3.59-.04.81.17,1.16,1.07,1.16.93,0,1.1-.38,1.04-1.17-.05-.59,0-1.2,0-1.79Zm33.47,0c0,.6.04,1.2,0,1.79-.07.79.11,1.17,1.04,1.17.9,0,1.11-.36,1.07-1.16-.05-1.14-.07-2.29,0-3.43.06-.89-.19-1.21-1.15-1.22-1.02-.01-.99.52-.96,1.21.03.54,0,1.09,0,1.63Zm-28.53-52.2c0-.34-.02-.56,0-.77.11-.94-.05-1.45-1.24-1.43-1.12.02-1.26.47-1.16,1.35.04.38.07.77,0,1.14-.27,1.45.54,1.58,1.66,1.48,1.54-.14.31-1.33.75-1.76Zm-4.95,59.93c0-.4,0-.67,0-.94.01-.75.18-1.45-1.08-1.42-1.16.02-1.01.64-1,1.35,0,.76.03,1.52,0,2.28-.03.63.24.81.86.86,2.13.16.84-1.49,1.23-2.12Zm35.55,0c0-.67,0-1.21,0-1.75.01-.71-.51-.61-.91-.56-.41.05-1.1-.35-1.15.45-.07,1.14-.02,2.28-.02,3.42,0,.44.29.49.64.54,2.1.3,1.25-1.29,1.43-2.1Z"/>
    <path class="cls-1" d="m76.83,30.64c13.19,0,26.38,0,39.57,0,2.2,0,2.39.19,2.36,2.3-.05,2.92-1.85,4.65-4.89,4.81-.68.04-1.8-.55-1.97.42-.18,1.02-.64,2.33.91,3.09,1.11.54,1.69,1.69,1.71,2.99.02,1.42,0,2.85.02,4.27.02,1.09-.52,1.64-1.57,1.66-1.59.03-3.17.02-4.76,0-1.13,0-1.71-.55-1.68-1.73.03-1.26.02-2.52,0-3.78-.03-1.55.56-2.82,1.92-3.55,1.36-.73.83-1.92.75-2.87-.09-1.07-1.14-.49-1.73-.51-1.86-.08-3.72-.06-5.58-.01-.51.01-1.42-.39-1.42.56,0,.84-.53,1.83.42,2.57,2.08,1.62,3.25,6.12,2.23,8.41-.25.56-.68.88-1.27.89-1.75.03-3.5.04-5.25,0-.9-.02-1.42-.59-1.44-1.47-.03-1.53-.07-3.07.04-4.59.09-1.25.7-2.39,1.85-2.93,1.5-.71.81-1.95.89-2.98.04-.52-.51-.46-.88-.46-2.35,0-4.71,0-7.06,0-.36,0-.89-.11-.83.48.09.88-.55,2.06.36,2.58,2.1,1.2,2.41,3.01,2.37,5.16-.09,4.39.54,4.28-4.27,4.26-3.76-.02-3.72,0-3.78-3.76-.03-2.26,0-4.35,2.36-5.66.92-.51.36-1.71.34-2.58-.02-.85-.84-.46-1.3-.47-2.02-.04-4.05-.04-6.07,0-.48,0-1.31-.31-1.35.45-.05.86-.59,2.06.34,2.58,2.18,1.22,2.49,3.09,2.46,5.29-.06,4.14-.02,4.14-4.1,4.14-4.04,0-3.99,0-4.05-4.02-.04-2.25.25-4.18,2.5-5.44.87-.48.38-1.73.29-2.59-.07-.71-.9-.41-1.39-.41-4.49-.02-8.98-.01-13.46-.02-.65,0-1.34.11-1.84-.47-.63-.73-.21-1.8.8-1.98.48-.09.98-.03,1.47-.03,17.46,0,34.92,0,52.38,0,.99,0,2.01.09,2.65-.9.45-.68.56-1.25-.57-1.22-.33,0-.66,0-.99,0-25.07,0-50.13,0-75.2.03-.6,0-1.78-.62-1.78.59,0,1.04.99,1.49,2.02,1.49,4.27,0,8.54-.02,12.81.02,1.05.01,2.72-.52,2.75,1.16.04,1.84-1.71,1.28-2.8,1.29-4.1.05-8.21.04-12.31.01-3.5-.02-5.34-2.04-5.16-5.5.06-1.1.53-1.61,1.62-1.58.38.01.77,0,1.15,0,13.14,0,26.27,0,39.41,0Zm12.62,15.28c0-.38.02-.77,0-1.15-.05-.99-.45-1.73-1.55-1.74-1.09-.02-1.55.69-1.59,1.69-.03.71-.02,1.42,0,2.13,0,.31-.08.63.31.83,1.39.71,2.84-.18,2.84-1.76Zm22.66-.11c0-.11,0-.22,0-.33,0-.99.09-2.05-1.17-2.4-.69-.19-1.39-.04-1.68.65-.53,1.24-.36,2.55-.14,3.84,0,.06.18.09.27.13,1.67.62,2.73-.11,2.73-1.88Zm-34.04,0c0-2.11-.43-2.86-1.6-2.79-.72.05-1.33.42-1.37,1.15-.07,1.16-.32,2.35.16,3.49.02.05.2.03.3.06,1.91.46,2.51,0,2.51-1.91Zm22.66-.09c0-.33,0-.65,0-.98,0-1.04-.48-1.71-1.53-1.71-1.05,0-1.53.69-1.51,1.72,0,.43.06.88-.01,1.3-.21,1.32.24,1.67,1.62,1.73,1.93.09,1.36-1.11,1.43-2.07Z"/>
  </g>
</svg>