<?xml version="1.0" encoding="UTF-8"?>
<svg id="Calque_1" data-name="Calque 1" xmlns="http://www.w3.org/2000/svg" viewBox="0 0 145 145">
  <defs>
    <style>
      .cls-1 {
        fill: #fff;
        stroke-width: 0px;
      }
    </style>
  </defs>
  <path class="cls-1" d="m94.79,107.82c-2.08.3-3.87-.3-3.57,2.98.3,3.57-1.79,5.66-5.06,5.06-7.44-1.19-10.12,2.68-11.31,8.93,0,.6-.6,1.19-.6,1.79-.3,2.08-1.49,2.68-3.57,1.79-2.68-1.19-5.66-2.08-8.33-2.98-2.38-.89-3.87-1.79-2.38-4.47,1.19-2.68.6-4.76-2.68-4.76-2.08,0-2.38-.89-2.08-2.68,0-1.19-.3-2.68,0-3.87,0-1.19-.6-2.08-1.79-1.79-1.49.3-2.98-.89-3.87.89-1.79,3.27.3,10.42,3.87,13.1-2.68.3-3.57,2.38-4.17,4.46-.89,2.98-2.08,6.25-3.28,9.23h5.95c.6-1.19,1.19-2.68,1.49-3.87.89-2.68,1.79-2.98,4.17-2.08,4.47,1.79,9.23,3.57,13.69,5.06.89.3,1.49.59,1.79.89h6.84c.3-1.19.3-2.38-.3-3.87-1.79-3.57,2.38-9.52,6.25-9.82,7.14-.3,11.01-4.17,11.01-10.72.3-1.79.6-3.57-2.08-3.27Z"/>
  <path class="cls-1" d="m73.11,70.2c0-6.13.03-12.25-.01-18.37-.02-2.36-.06-4.97,1.53-6.61,3.39-3.5,2.82-7.66,2.83-11.81,0-3.95.03-7.89,0-11.84-.03-2.68,1.17-4.05,3.92-4.04,13.92.08,11.97-1.42,12.08,10.96.02,2.31.08,4.63-.02,6.94-.14,3.28-.08,6.33,2.44,9.03,1.69,1.8,1.87,4.42,1.86,6.94-.03,12.93-.09,25.86.05,38.79.03,2.56-.67,3.2-3.17,3.12-6.12-.19-12.25-.17-18.37,0-2.42.07-3.29-.44-3.21-3.08.21-6.66.07-13.34.07-20.01Zm14.59-38.78c0-1.9-.09-3.81.03-5.7.1-1.71-.42-2.45-2.25-2.43-1.8.01-2.33.7-2.29,2.43.1,3.93.12,7.88,0,11.81-.06,1.92.5,2.59,2.5,2.59,2.1,0,2.06-1.14,2.03-2.59-.05-2.04-.01-4.07-.01-6.11Z"/>
  <path class="cls-1" d="m53.37,46.64c3.27,0,6.54.15,9.79-.04,3.12-.19,4.41,1.32,4.92,4.14.75,4.14,1.72,8.24,2.47,12.38,1.6,8.91-2.27,15.36-11.02,17.52-2.96.73-3.77,1.9-3.45,4.64.19,1.61-.06,3.27.06,4.89.15,2.04-.08,3.19-2.72,3.17-2.58-.02-3.45-.81-3.08-3.27.12-.8-.06-1.64.03-2.44.44-3.93-.03-6.41-4.97-7.69-7.74-2-10.87-8.52-9.32-16.54.82-4.27,1.87-8.5,2.52-12.79.46-3.08,2.01-4.13,4.97-4,3.26.15,6.53.03,9.8.03Zm.22,5.76c-1.36,0-2.77.21-4.08-.04-4.25-.82-5.91.93-6.56,5.12-1.06,6.83.06,8.03,7.15,6.47,1.8-.4,3.23-1.33,4.71-2.31,1.92-1.27,3.85-2.59,5.93-3.54,1.55-.71,3.03-.89,2.36-3.29-.54-1.95-1.42-2.61-3.37-2.45-2.03.17-4.08.04-6.13.04Z"/>
  <path class="cls-1" d="m73.22,98.96c10.34,0,20.69-.11,31.03.11,1.6.03,4.6-2.02,4.95,1.91.51,5.65-.8,8.31-4.6,9-1.06.19-2.17.15-3.25.15-18.78,0-37.56.01-56.34,0-6.54,0-9.01-3.16-7.91-9.64.39-2.31,1.93-1.5,3.05-1.5,11.02-.06,22.05-.04,33.07-.04Z"/>
</svg>