<?xml version="1.0" encoding="UTF-8"?>
<svg id="Calque_1" data-name="Calque 1" xmlns="http://www.w3.org/2000/svg" viewBox="0 0 145 145">
  <defs>
    <style>
      .cls-1 {
        fill: #fff;
        stroke-width: 0px;
      }
    </style>
  </defs>
  <path class="cls-1" d="m72.3,56.79c-15.02,0-30.04,0-45.06,0-3.77,0-5.61,2.97-3.92,6.33.77,1.51,2.2,1.48,3.63,1.48,15.63,0,31.26,0,46.9,0,4.72,0,9.43,0,14.15,0,1.41,0,2.76.16,2.76,1.97,0,1.85-1.43,1.92-2.8,1.93-3.93,0-7.86.05-11.79-.02-1.34-.03-1.8.34-1.79,1.74.05,10.31.03,20.61.02,30.92,0,.91.08,1.59,1.01,2.15,2.04,1.25,2.75,3.22,2.74,5.58-.05,6.2.03,12.4-.05,18.6-.02,1.42.34,2.17,1.75,2.67,3.2,1.13,6.32,2.47,9.48,3.71,1.33.52,2.49,1.27,1.85,2.88-.64,1.6-1.94,1.37-3.3.81-4.43-1.81-8.91-3.5-13.33-5.35-1.46-.61-2.71-.67-4.21-.04-4.41,1.87-8.89,3.56-13.32,5.35-1.32.54-2.67.9-3.35-.69-.75-1.75.55-2.47,1.96-3.02,2.84-1.1,5.63-2.34,8.51-3.34,1.85-.65,2.68-1.49,2.6-3.68-.21-5.84-.02-11.7-.1-17.55-.03-2.54.62-4.69,2.87-6.04.86-.52.87-1.17.87-1.96,0-10.31-.06-20.61.04-30.92.02-1.9-.91-1.83-2.24-1.83-13.62.02-27.25.02-40.87.01-6.08,0-8.43-2.42-8.28-8.43.12-4.58,2.58-7.13,7.17-7.17,8.47-.07,16.94-.1,25.41.03,2.27.04,2.5-.67,2.23-2.68-.78-5.62-1.38-11.26-1.93-16.9-.34-3.48.95-4.81,4.43-4.84,3.58-.03,7.16-.03,10.74,0,3.63.03,5.17,1.73,4.69,5.25-.75,5.44-1.51,10.89-2.4,16.31-.33,2.02-.19,2.97,2.3,2.87,4.99-.19,5.11-.05,4.97-5.1-.2-7.76.42-15.27,3.95-22.42,1.14-2.31,1.69-4.97-.89-7.54-1.96-1.96-1.34-5.15-.5-7.73.73-2.23,2.87-2.19,4.86-2.14,1.83.05,3.67-.04,5.5.03,2.38.09,3.82,1.4,3.76,3.74-.07,2.64.94,5.53-2.24,7.53-1.03.65-.36,2.94-.06,4.48.5,2.6,1.97,4.83,2.83,7.29,2.01,5.76,1.57,11.71,1.59,17.63.02,4.15,0,4.15,4.27,4.15,6.11,0,12.23.04,18.34-.01,2.91-.02,5.49.65,6.8,3.45,1.44,3.07,1.45,6.31-.28,9.3-1.06,1.82-2.85,2.83-5.02,2.84-6.99.04-13.97.03-20.96.05-1.42,0-2.52-.59-2.42-2.09.1-1.49,1.31-1.82,2.69-1.82,6.29.03,12.58.02,18.86.01,3.34,0,4-.67,3.99-3.95,0-3.25-.63-3.85-4.08-3.85-15.11,0-30.22,0-45.33,0Zm19.22-10.71c-.28-1.62.99-4.48-.49-5.72-1.24-1.04-3.99-.29-6.07-.33-.7-.01-1.4.07-2.09-.02-1.61-.21-2.35.26-2.21,2.07.17,2.07.04,4.17.04,6.26q0,4.53,4.43,4.53,6.38,0,6.38-6.8Zm-29.76-6.05c-1.05,0-2.11.1-3.14-.02-1.61-.19-2.15.3-1.89,1.99.47,3.01.76,6.05,1.06,9.09.12,1.24.53,1.78,1.92,1.82,5.2.18,5.2.25,5.99-4.87.16-1.03.31-2.07.44-3.11q.63-4.91-4.39-4.91Zm24.13-3.9c.78,0,1.56,0,2.34,0,2.98,0,3.01-.01,2.15-2.81-1.33-4.34-4.11-8.29-3.55-13.16.06-.53-.35-.76-.84-.75-.63.01-.62.53-.6.94.2,3.87-1.34,7.24-2.83,10.68-2.19,5.04-2.07,5.1,3.32,5.1Zm-11.78,81.37c0-2.87,0-5.74,0-8.61,0-1.19-.08-2.42-1.63-2.48-1.73-.07-1.83,1.24-1.83,2.53,0,5.65.05,11.31-.04,16.96-.02,1.5.5,1.49,1.79,1.55,1.46.07,1.78-.23,1.74-1.6-.09-2.78-.03-5.57-.03-8.35Zm-12.37-84.98c-1.3,0-2.61-.09-3.9.03-.74.07-2.22-.73-1.96,1.07.16,1.11-.3,2.71,1.92,2.55,2.59-.19,5.21-.18,7.81,0,1.97.13,2.01-.99,2.14-2.38.18-2-1.28-1.17-2.1-1.24-1.29-.12-2.6-.03-3.9-.03Zm24.06-17.13c.62,0,1.06,0,1.49,0,1.08-.02,2.22.36,2.23-1.56.01-1.88-.93-1.93-2.28-1.85-.87.05-1.75,0-2.62.01-1.6.04-2.67,1.68-1.78,2.91.77,1.06,2.1.22,2.96.48Z"/>
  <path class="cls-1" d="m5.3,80.72c0-2.36.02-4.71,0-7.07-.02-2.27.99-3.95,3.07-4.69,2.05-.72,3.95-.22,5.39,1.58,2.56,3.23,5.36,6.2,8.94,8.35,2.74,1.65,5.6,2.67,8.89,2.54,3.75-.14,7.51-.07,11.26-.02,4.49.06,6.92,2.78,6.94,7.66.03,5.1-2.34,7.91-6.88,8-3.84.08-7.68.07-11.52-.01-1.41-.03-1.99.25-1.95,1.83.11,4.45.06,8.9.02,13.36,0,1.03.17,1.73,1.17,2.35,1.83,1.13,2.62,2.92,2.59,5.11-.05,3.32.07,6.64-.05,9.95-.06,1.55.37,2.42,1.91,2.85,1.33.37,2.61.98,3.89,1.51,1.2.49,1.91,1.36,1.42,2.66-.48,1.28-1.51,1.54-2.79,1.05-3.4-1.31-6.81-3.6-10.22-3.62-3.31-.01-6.64,2.32-9.95,3.63-1.12.44-2.13.29-2.67-.84-.58-1.23-.12-2.2,1.13-2.77.24-.11.46-.27.71-.31,4.6-.76,5.92-3.58,5.27-7.92-.3-1.96-.03-4.01-.05-6.02-.03-2.26.73-4.15,2.67-5.35.89-.55,1.12-1.19,1.11-2.13-.03-4.54-.06-9.08.02-13.62.03-1.4-.45-1.77-1.78-1.73-2.88.09-5.76.06-8.64.02-6.03-.09-9.8-3.84-9.88-9.82-.03-2.18,0-4.37,0-6.55Zm23.06,12.34c4.8,0,9.59-.02,14.39,0,2.47.01,3.04-1.41,3.04-3.57,0-2.2-.16-4.12-3.02-4.14-3.05-.02-6.1-.04-9.15,0-3.32.04-6.59,0-9.73-1.41-5.06-2.28-9.04-5.82-12.48-10.08-.41-.5-.74-1.4-1.56-1.12-.81.28-.57,1.18-.58,1.84-.01,4.19-.06,8.37,0,12.56.06,4.02,1.96,5.86,6,5.9,4.36.04,8.72,0,13.08,0Zm-2.6,37.44c1.32-1.3,2.42-.64,3.57-.57,0-3.35,0-6.57,0-9.79,0-1.34-.33-2.59-1.93-2.5-1.42.08-1.66,1.26-1.65,2.5.03,3.22,0,6.44,0,10.35Z"/>
  <path class="cls-1" d="m116.3,93.06c4.45,0,8.9.04,13.35-.01,3.57-.04,5.2-1.46,5.81-5.03.24-1.4.53-2.72,2.33-2.45,1.75.27,1.74,1.68,1.63,3.05-.38,4.77-4.24,8.3-9.36,8.44-3.05.09-6.11.09-9.16-.01-1.41-.05-1.76.44-1.74,1.77.07,4.45.04,8.9.02,13.35,0,1.01.12,1.76,1.14,2.38,1.94,1.18,2.67,3.11,2.65,5.36-.03,3.05.16,6.12-.06,9.16-.16,2.16.62,3.21,2.63,3.71,1.09.27,2.11.8,3.15,1.24,1.18.5,1.9,1.33,1.41,2.66-.49,1.34-1.54,1.51-2.78,1.04-3.4-1.3-6.81-3.61-10.21-3.62-3.31-.01-6.64,2.32-9.95,3.63-1.27.5-2.3.21-2.77-1.08-.42-1.14.07-2.04,1.21-2.53.24-.1.47-.27.72-.31,4.74-.77,6.02-3.69,5.31-8.12-.31-1.96,0-4.01-.06-6.01-.06-2.19.76-3.98,2.6-5.1,1-.62,1.17-1.33,1.16-2.35-.04-4.45-.09-8.9.02-13.35.04-1.59-.56-1.86-1.96-1.83-3.75.09-7.51.07-11.26.02-4.76-.07-7.17-2.8-7.14-8.01.03-4.99,2.47-7.62,7.2-7.67,2.79-.03,5.61-.24,8.37.04,7.98.79,13.68-3.07,18.61-8.68.75-.85,1.44-1.75,2.2-2.59,1.39-1.53,3.18-1.84,5.03-1.21,1.88.65,2.97,2.12,3.06,4.15.07,1.66.03,3.32.01,4.97-.01,1.24-.72,2.04-1.89,2.08-1.2.04-1.92-.76-2-1.98-.07-1.13-.02-2.27-.07-3.4-.03-.74.31-1.77-.65-2.05-.75-.22-1.13.69-1.54,1.21-2.25,2.81-4.77,5.33-7.74,7.38-3.81,2.63-7.92,4.29-12.69,4.07-3.48-.16-6.98-.08-10.47-.02-2.87.05-3.41.75-3.39,4,.02,3.06.53,3.66,3.41,3.68,4.63.04,9.25.01,13.88.01Zm2.71,37c0-3.47-.01-6.77,0-10.07,0-1.28-.38-2.38-1.8-2.37-1.42.01-1.78,1.15-1.78,2.41,0,3.29,0,6.57,0,10.03,1.26-.48,2.36-.49,3.57,0Z"/>
</svg>